<?xml version="1.0" encoding="utf-8"?>
<!-- Generator: Adobe Illustrator 23.1.1, SVG Export Plug-In . SVG Version: 6.00 Build 0)  -->
<svg version="1.1" id="Layer_1" xmlns="http://www.w3.org/2000/svg" xmlns:xlink="http://www.w3.org/1999/xlink" x="0px" y="0px"
	 viewBox="0 0 598 235.7" style="enable-background:new 0 0 598 235.7;" xml:space="preserve">
<style type="text/css">
	.st0{fill:#072DA0;}
	.st1{fill:#F8FAFF;}
	.st2{fill:#FFFFFF;}
</style>
<g>
	<path class="st0" d="M60.1,81c0-11.6,9.4-20.9,20.9-20.9h73.6c11.6,0,20.9,9.4,20.9,20.9v73.6c0,11.6-9.4,20.9-20.9,20.9H81
		c-11.6,0-20.9-9.4-20.9-20.9V81z"/>
	<path class="st1" d="M154.7,176.7H81c-12.2,0-22.1-9.9-22.1-22.1V81c0-12.2,9.9-22.1,22.1-22.1h73.6c12.2,0,22.1,9.9,22.1,22.1
		v73.6C176.7,166.8,166.8,176.7,154.7,176.7z M81,61.3c-10.9,0-19.7,8.9-19.7,19.7v73.6c0,10.9,8.9,19.7,19.7,19.7h73.6
		c10.9,0,19.7-8.9,19.7-19.7V81c0-10.9-8.9-19.7-19.7-19.7H81z"/>
	<g>
		<path class="st2" d="M88.4,88.4h11.8v11.8H112V112h11.8v11.8H112v11.8h-11.8v11.8H88.4v-23.6h11.8V112H88.4V88.4z"/>
		<path class="st2" d="M123.7,135.5v-11.8h11.8v11.8H123.7z"/>
		<path class="st2" d="M135.5,135.5h11.8v11.8h-11.8V135.5z"/>
		<path class="st2" d="M123.7,135.5h-11.8v11.8h11.8V135.5z"/>
		<path class="st2" d="M135.5,123.7v-11.8h-11.8v-11.8h-11.8V88.4h23.6v11.8h11.8v23.6h-11.8V123.7z"/>
	</g>
	<g>
		<path class="st0" d="M238.4,135.3l-0.1-21.1l-10.4,17.4h-3.6l-10.4-17v20.7h-7.7V100h6.8l13.2,21.9l13-21.9h6.8l0.1,35.3H238.4z"
			/>
		<path class="st0" d="M266.5,135.7c-2.9,0-5.4-0.6-7.7-1.8c-2.3-1.2-4-2.9-5.3-5c-1.3-2.1-1.9-4.5-1.9-7.2s0.6-5.1,1.9-7.2
			c1.3-2.1,3.1-3.8,5.3-4.9c2.3-1.2,4.9-1.8,7.7-1.8c2.9,0,5.4,0.6,7.7,1.8c2.3,1.2,4,2.8,5.3,4.9s1.9,4.5,1.9,7.2s-0.6,5.1-1.9,7.2
			c-1.3,2.1-3.1,3.8-5.3,5C271.9,135.2,269.4,135.7,266.5,135.7z M266.5,129.3c2,0,3.7-0.7,5-2c1.3-1.4,2-3.2,2-5.5s-0.7-4.1-2-5.4
			c-1.3-1.4-2.9-2.1-5-2.1c-2,0-3.7,0.7-5,2.1c-1.3,1.3-2,3.2-2,5.4c0,2.3,0.7,4.1,2,5.5C262.8,128.6,264.5,129.3,266.5,129.3z"/>
		<path class="st0" d="M316.5,128.9v12.3h-7.3v-5.8H290v5.8h-7.3v-12.3h1.1c1.7,0,2.8-1,3.5-3c0.6-1.9,1-4.7,1.2-8.3l0.4-9.4h23.7
			v20.7H316.5z M295.6,118.2c-0.1,2.8-0.3,5-0.7,6.8c-0.3,1.7-0.9,3.1-1.8,4h11.5v-14.2h-8.9L295.6,118.2z"/>
		<path class="st0" d="M348.2,108.2L335.9,137c-1.2,3.1-2.8,5.3-4.7,6.6c-1.8,1.3-4,1.9-6.6,1.9c-1.4,0-2.8-0.2-4.2-0.7
			c-1.4-0.4-2.5-1-3.4-1.8l2.9-5.6c0.6,0.5,1.3,1,2.1,1.3c0.8,0.3,1.6,0.5,2.4,0.5c1.1,0,2-0.3,2.6-0.8c0.7-0.5,1.3-1.4,1.8-2.6
			l0.1-0.3l-11.8-27.3h8.1l7.6,18.4l7.7-18.4C340.5,108.2,348.2,108.2,348.2,108.2z"/>
		<path class="st0" d="M375.6,108.2v27.1h-7.9v-20.7h-8.6l-0.3,4.8c-0.1,3.6-0.5,6.5-1,8.9s-1.4,4.2-2.6,5.5s-2.9,2-5.1,2
			c-1.1,0-2.5-0.2-4.1-0.6l0.4-6.5c0.5,0.1,0.9,0.1,1.2,0.1c1.2,0,2.1-0.4,2.6-1.3c0.6-0.9,1-2,1.2-3.3s0.4-3.1,0.5-5.3l0.4-10.9
			h23.3V108.2z"/>
		<path class="st0" d="M397.4,116.9c3.5,0,6.3,0.8,8.1,2.4c1.9,1.5,2.8,3.7,2.8,6.6c0,3-1.1,5.3-3.2,7c-2.1,1.6-5,2.5-8.8,2.5
			l-13.7-0.1v-27.1h7.8v8.7C390.4,116.9,397.4,116.9,397.4,116.9z M395.7,129.8c1.5,0,2.7-0.3,3.5-1s1.2-1.7,1.2-3s-0.4-2.3-1.2-2.9
			c-0.8-0.6-1.9-0.9-3.5-1l-5.1-0.1v7.9h5.1V129.8z"/>
		<path class="st0" d="M428.5,110.1c2.6,0,4.9,0.5,6.8,1.6c2,1,3.5,2.5,4.5,4.4c1.1,1.9,1.6,4.1,1.6,6.7s-0.6,4.9-1.9,6.9
			c-1.2,2-3,3.5-5.3,4.6s-4.8,1.6-7.7,1.6c-4.8,0-8.5-1.5-11.2-4.5c-2.7-3.1-4-7.5-4-13.4c0-5.4,1.2-9.8,3.5-13
			c2.4-3.3,6.1-5.4,11-6.4l12.9-2.6l1.1,6.8l-11.4,2.3c-3.1,0.6-5.4,1.6-6.9,3s-2.4,3.4-2.6,6c1.2-1.3,2.6-2.3,4.2-2.9
			C424.8,110.4,426.6,110.1,428.5,110.1z M426.7,129.8c2,0,3.6-0.7,4.9-2c1.2-1.3,1.9-3,1.9-5s-0.6-3.7-1.9-4.9
			c-1.2-1.2-2.8-1.8-4.9-1.8s-3.7,0.6-5,1.8c-1.2,1.2-1.9,2.8-1.9,4.9c0,2,0.6,3.7,1.9,5C423,129.2,424.7,129.8,426.7,129.8z"/>
		<path class="st0" d="M456.5,107.8c4.2,0,7.4,1,9.7,3c2.3,2,3.4,5,3.4,9v15.5h-7.4V132c-1.5,2.5-4.2,3.8-8.3,3.8
			c-2.1,0-3.9-0.4-5.5-1.1c-1.5-0.7-2.7-1.7-3.5-2.9s-1.2-2.7-1.2-4.2c0-2.5,0.9-4.5,2.8-5.9s4.9-2.2,8.8-2.2h6.3
			c0-1.7-0.5-3-1.6-3.9c-1-0.9-2.6-1.4-4.7-1.4c-1.4,0-2.9,0.2-4.3,0.7c-1.4,0.4-2.6,1-3.5,1.8l-2.8-5.5c1.5-1,3.3-1.8,5.3-2.4
			C452.1,108.1,454.3,107.8,456.5,107.8z M455.8,130.5c1.3,0,2.5-0.3,3.6-0.9c1-0.6,1.8-1.6,2.2-2.8V124h-5.4
			c-3.2,0-4.9,1.1-4.9,3.2c0,1,0.4,1.8,1.2,2.4C453.4,130.2,454.5,130.5,455.8,130.5z"/>
		<path class="st0" d="M475.9,108.2h7.8v10.6h11.8v-10.6h7.9v27.1h-7.9v-10.1h-11.8v10.1h-7.8V108.2z"/>
		<path class="st0" d="M522.5,125.1h-4.1v10.3h-7.9v-27.1h7.9v10.5h4.2l7.4-10.5h8.4l-9.5,13l10.2,14.1h-9.3L522.5,125.1z"/>
	</g>
</g>
</svg>
