<svg width="70" height="70" viewBox="0 0 70 70" fill="none" xmlns="http://www.w3.org/2000/svg">
<g clip-path="url(#clip0_534_275)">
<mask id="mask0_534_275" style="mask-type:luminance" maskUnits="userSpaceOnUse" x="0" y="0" width="70" height="70">
<path d="M69.7568 0H0.567627V69.1892H69.7568V0Z" fill="white"/>
</mask>
<g mask="url(#mask0_534_275)">
<path d="M51.3529 65.2703C50.6522 65.2703 50.0761 65.8034 50.0081 66.4862H39.8388L38.2345 56.8255L40.0177 55.0424C40.2711 54.789 40.4135 54.4452 40.4135 54.0869C40.4135 53.7285 40.2711 53.3848 40.0177 53.1313L38.4399 51.5535H41.136C44.0949 51.5535 46.8483 53.0221 48.5009 55.4821C48.9171 56.1016 49.7568 56.2663 50.3761 55.8503C50.9956 55.434 51.1604 54.5944 50.7442 53.9748C48.6056 50.7916 45.053 48.8821 41.2269 48.8521C42.536 47.4024 43.3345 45.4832 43.3345 43.3808V41.3988C43.3345 36.8923 39.6683 33.2261 35.1618 33.2261C30.6553 33.2261 26.9891 36.8923 26.9891 41.3988V43.3808C26.9891 45.4838 27.7879 47.4032 29.0973 48.8531C22.7603 48.902 17.6196 54.0705 17.6196 60.4189V67.8375C17.6196 68.5838 18.2246 69.1889 18.971 69.1889H51.3526C52.099 69.1889 52.704 68.5838 52.704 67.8375V66.6216C52.7042 65.8754 52.0992 65.2703 51.3529 65.2703ZM35.1776 56.0604L33.204 54.0869L35.1776 52.1134L37.1513 54.0869L35.1776 56.0604ZM34.4781 59.1262C34.6926 59.2562 34.9348 59.3228 35.1775 59.3228C35.4202 59.3228 35.6625 59.2563 35.8768 59.1262L37.0991 66.4862H33.2558L34.4781 59.1262ZM29.6921 41.3988C29.6921 38.3827 32.1458 35.9288 35.1621 35.9288C38.1783 35.9288 40.6321 38.3825 40.6321 41.3988V43.3808C40.6321 46.3969 38.1783 48.8508 35.1621 48.8508C32.1458 48.8508 29.6921 46.397 29.6921 43.3808V41.3988ZM20.3226 60.4189C20.3226 55.5304 24.2996 51.5535 29.188 51.5535H31.915L30.3372 53.1313C30.0838 53.3848 29.9414 53.7285 29.9414 54.0869C29.9414 54.4452 30.0838 54.789 30.3372 55.0424L32.1204 56.8255L30.5161 66.4862H20.3225L20.3226 60.4189Z" fill="#072DA0"/>
<path d="M28 1.5C28.4 1.5 37.5 1.83333 42 2V16.5L28 16V1.5Z" fill="#287EFF"/>
<path d="M60 2L53 15H68L61 2.5L60 2Z" fill="#287EFF"/>
<path d="M28 1.5C28.4 1.5 37.5 1.83333 42 2V16.5L28 16V1.5Z" stroke="black" stroke-linecap="round" stroke-linejoin="round"/>
<path d="M60 2L53 15H68L61 2.5L60 2Z" stroke="black" stroke-linecap="round" stroke-linejoin="round"/>
<path d="M17.8494 8.64179C17.8494 3.87719 13.973 0.000976562 9.20857 0.000976562C4.44411 0.000976562 0.567627 3.87733 0.567627 8.64179C0.567627 13.4062 4.44398 17.2826 9.20844 17.2826C13.9729 17.2826 17.8494 13.4063 17.8494 8.64179ZM3.27033 8.64179C3.27033 5.3676 5.93411 2.70368 9.20844 2.70368C12.4828 2.70368 15.1465 5.3676 15.1465 8.64179C15.1465 11.9159 12.4828 14.5799 9.20844 14.5799C5.93411 14.5799 3.27033 11.9161 3.27033 8.64179Z" fill="#072DA0"/>
<path d="M27.8728 17.2818H42.4519C43.1982 17.2818 43.8032 16.6766 43.8032 15.9304V1.35135C43.8032 0.605135 43.1982 0 42.4519 0H27.8728C27.1265 0 26.5215 0.605135 26.5215 1.35135V15.9304C26.5215 16.6766 27.1265 17.2818 27.8728 17.2818ZM29.2242 2.70271H41.1005V14.5791H29.2242V2.70271Z" fill="#072DA0"/>
<path d="M69.5758 14.7177L61.7783 1.2123C61.537 0.794189 61.0909 0.536621 60.6081 0.536621C60.1252 0.536621 59.6791 0.794189 59.4378 1.2123L51.6403 14.7177C51.3989 15.1359 51.3989 15.651 51.6403 16.0691C51.8817 16.4872 52.3278 16.7448 52.8106 16.7448H68.4055C68.8883 16.7448 69.3344 16.4872 69.5758 16.0691C69.8172 15.651 69.8172 15.1359 69.5758 14.7177ZM55.1512 14.0421L60.6079 4.59068L66.0647 14.0421H55.1512Z" fill="#072DA0"/>
<path d="M35.1622 30.5732C35.9086 30.5732 36.5136 29.968 36.5136 29.2218V25.366L36.5683 25.4424C36.8322 25.8111 37.2471 26.0075 37.6684 26.0075C37.9406 26.0075 38.2155 25.9255 38.4538 25.7549C39.0607 25.3206 39.2006 24.4765 38.7663 23.8696L36.2613 20.3692C36.0075 20.0146 35.5983 19.8042 35.1624 19.8042C34.7264 19.8042 34.3172 20.0146 34.0634 20.3692L31.5584 23.8696C31.1241 24.4765 31.264 25.3206 31.8709 25.7549C32.4778 26.1892 33.3218 26.0495 33.7563 25.4425L33.8109 25.366V29.2218C33.8109 29.9682 34.4159 30.5732 35.1622 30.5732Z" fill="#072DA0"/>
<path d="M24.036 41.5178C24.036 40.7715 23.431 40.1664 22.6847 40.1664H10.5675V25.366L10.6223 25.4424C10.8862 25.8111 11.301 26.0075 11.7224 26.0075C11.9945 26.0075 12.2694 25.9255 12.5078 25.7549C13.1147 25.3206 13.2545 24.4765 12.8202 23.8696L10.3152 20.3692C10.0614 20.0146 9.65225 19.8042 9.21631 19.8042C8.78036 19.8042 8.37117 20.0146 8.11739 20.3692L5.61239 23.8696C5.17806 24.4765 5.31793 25.3206 5.92482 25.7549C6.53158 26.1892 7.37577 26.0495 7.81023 25.4425L7.86482 25.366V41.5178C7.86482 42.264 8.46982 42.8691 9.21617 42.8691H22.6847C23.4309 42.8691 24.036 42.2641 24.036 41.5178Z" fill="#072DA0"/>
<path d="M62.2071 20.3692C61.9533 20.0146 61.5441 19.8042 61.1082 19.8042C60.6723 19.8042 60.2631 20.0146 60.0093 20.3692L57.5043 23.8696C57.07 24.4765 57.2098 25.3206 57.8167 25.7549C58.4236 26.1892 59.2678 26.0495 59.7021 25.4425L59.7568 25.3661V40.1665H47.6397C46.8933 40.1665 46.2883 40.7717 46.2883 41.5179C46.2883 42.2641 46.8933 42.8692 47.6397 42.8692H61.1082C61.8545 42.8692 62.4595 42.2641 62.4595 41.5179V25.3661L62.5143 25.4425C62.7782 25.8112 63.1931 26.0076 63.6144 26.0076C63.8866 26.0076 64.1614 25.9256 64.3998 25.755C65.0067 25.3207 65.1466 24.4767 64.7123 23.8698L62.2071 20.3692Z" fill="#072DA0"/>
<path d="M51.3526 61.8922C52.0989 61.8922 52.7039 61.2872 52.7039 60.5409C52.7039 59.7946 52.0989 59.1895 51.3526 59.1895C50.6062 59.1895 50.0012 59.7946 50.0012 60.5409C50.0012 61.2872 50.6062 61.8922 51.3526 61.8922Z" fill="#072DA0"/>
</g>
</g>
<defs>
<clipPath id="clip0_534_275">
<rect width="70" height="70" fill="white"/>
</clipPath>
</defs>
</svg>
