<svg width="70" height="70" viewBox="0 0 70 70" fill="none" xmlns="http://www.w3.org/2000/svg">
<mask id="mask0_534_323" style="mask-type:luminance" maskUnits="userSpaceOnUse" x="0" y="0" width="70" height="70">
<path d="M70 0H0.810791V69.1892H70V0Z" fill="white"/>
</mask>
<g mask="url(#mask0_534_323)">
<path d="M15.9117 48.4246C15.3395 47.9453 14.4872 48.0207 14.008 48.5928L10.629 52.6271L9.40776 51.5924C8.8383 51.11 7.98573 51.1805 7.50317 51.75C7.02073 52.3194 7.09127 53.1722 7.66073 53.6546L9.91884 55.5677C10.1638 55.7753 10.4737 55.888 10.7924 55.888C10.8307 55.888 10.8691 55.8863 10.9076 55.883C11.266 55.8523 11.5975 55.6801 11.8284 55.4043L16.0802 50.3282C16.5591 49.7561 16.4837 48.9039 15.9117 48.4246Z" fill="#072DA0"/>
<path d="M44.0001 22V26C44.0001 26.5 42.0001 28 41.5001 28H32.5001C31.6667 27.8333 30.0001 27.8 30.0001 29V32.5L28.0001 33C27.5001 33.3333 26.5001 34.1 26.5001 34.5C26.5001 35 26.0001 36 26.5001 36.5C27.0001 37 28 37.5 28.5 38C29 38.5 30.0001 38 30.0001 38.5V40.5C30.0001 40.9 30.3334 42 30.5 42.5C30.8333 42.8333 31.6 43.5 32 43.5C32.4 43.5 33.1667 43.8333 33.5 44V45.5C33.5 45.9 34.1667 47 34.5 47.5C35 47.8333 36.2 48.5 37 48.5C38 48.5 46.5 49.5 48 49.5C49.2 49.5 53.1667 48.8333 55 48.5L58.5 46L63.5 45H66.5L68.5 44V41.5L69 31L68 29H64.5C64.1 29 62.3333 27.6667 61.5 27C60.8333 26.5 59.5 25.4 59.5 25C59.5 24.6 56.5 23.1667 55 22.5L53 22H48H45.5H44.0001Z" fill="#287EFF"/>
<path d="M26 8V20L30.0001 18.5L31.5 17.5L36.5 20L38 18.5L37.5 9L36 8H31H26Z" fill="#287EFF"/>
<path d="M44.0001 22C44.0001 23.1667 44.0001 25.6 44.0001 26M44.0001 22V26M44.0001 22H45.5M44.0001 26C44.0001 26.5 42.0001 28 41.5001 28M45.5 22H48H53L55 22.5C56.5 23.1667 59.5 24.6 59.5 25C59.5 25.4 60.8333 26.5 61.5 27C62.3333 27.6667 64.1 29 64.5 29M45.5 22H43.5M41.5001 28C41.1001 28 35.3334 28 32.5001 28M41.5001 28H32.5001M32.5001 28C31.6667 27.8333 30.0001 27.8 30.0001 29M30.0001 29C30.0001 30.2 30.0001 31.8333 30.0001 32.5M30.0001 29V32.5M30.0001 32.5L28.0001 33C27.5001 33.3333 26.5001 34.1 26.5001 34.5C26.5001 35 26.0001 36 26.5001 36.5C27.0001 37 28 37.5 28.5 38C29 38.5 30.0001 38 30.0001 38.5M30.0001 38.5C30.0001 39 30.0001 40 30.0001 40.5M30.0001 38.5V40.5M30.0001 40.5C30.0001 40.9 30.3334 42 30.5 42.5C30.8333 42.8333 31.6 43.5 32 43.5C32.4 43.5 33.1667 43.8333 33.5 44M33.5 44C33.5 44.3333 33.5 45.1 33.5 45.5M33.5 44V45.5M33.5 45.5C33.5 45.9 34.1667 47 34.5 47.5C35 47.8333 36.2 48.5 37 48.5C38 48.5 46.5 49.5 48 49.5C49.2 49.5 53.1667 48.8333 55 48.5L58.5 46L63.5 45H66.5L68.5 44V41.5L69 31L68 29M68 29C67 29 64.9 29 64.5 29M68 29H64.5M26 8C26 8.4 26 16.1667 26 20M26 8H31H36L37.5 9L38 18.5L36.5 20L31.5 17.5L30.0001 18.5L26 20M26 8V20" stroke="black" stroke-linecap="round" stroke-linejoin="round"/>
<path d="M67.1381 27.5824H65.1959C63.5692 27.5072 62.2609 26.1217 60.7473 24.5184C59.7358 23.4472 58.6528 22.3002 57.3482 21.4501V9.89815C57.3482 7.86342 55.6928 6.20801 53.6582 6.20801H9.58066C7.54593 6.20801 5.89066 7.86342 5.89066 9.89815V19.2722C5.89066 20.0186 6.49566 20.6236 7.24201 20.6236C7.98836 20.6236 8.59336 20.0186 8.59336 19.2722V9.89815C8.59336 9.36301 9.04552 8.91071 9.58066 8.91071H24.5346V20.8671C24.5346 21.3583 24.8012 21.8109 25.2308 22.0491C25.4348 22.1622 25.6605 22.2184 25.8858 22.2184C26.1348 22.2184 26.3834 22.1497 26.6021 22.013L31.6211 18.8761L36.6363 22.0129C37.053 22.2733 37.578 22.2874 38.0078 22.0492C38.4377 21.8111 38.7043 21.3586 38.7043 20.8672V8.91071H53.6584C54.1935 8.91071 54.6457 9.36288 54.6457 9.89815V20.3044C54.2061 20.2124 53.7446 20.1571 53.2566 20.1484C53.2486 20.1483 53.2408 20.1483 53.2328 20.1483H49.8093H47.1503H45.6188C45.6117 20.1483 45.6049 20.1483 45.5978 20.1484C43.9688 20.1737 43.1317 20.9122 42.7163 21.5272C42.0716 22.4818 42.0119 23.7747 42.5476 25.1661C42.6723 25.491 42.8243 25.7983 42.9995 26.0871H32.7523C30.5507 26.0871 28.7594 27.8783 28.7594 30.0799C28.7594 30.5326 28.8351 30.968 28.9742 31.374H28.6155C26.4139 31.374 24.6227 33.1652 24.6227 35.367C24.6227 37.5687 26.4139 39.3599 28.6155 39.3599H28.9732C28.8347 39.7648 28.7593 40.1988 28.7593 40.6502C28.7593 42.783 30.4369 44.5309 32.5405 44.6414C32.4007 45.0479 32.3247 45.4837 32.3247 45.9372C32.3247 48.139 34.1159 49.9302 36.3176 49.9302H53.06C53.6366 49.9302 54.1615 49.8597 54.6453 49.7388V53.9732C54.6453 54.5105 54.1931 54.9643 53.658 54.9643H22.3566C22.6217 54.0202 22.7666 53.0263 22.7666 51.9986C22.7666 45.9451 17.8419 41.0202 11.7885 41.0202C10.6773 41.0202 9.60458 41.1875 8.59295 41.496V31.4218C8.59295 30.6755 7.98795 30.0705 7.2416 30.0705C6.49525 30.0705 5.89025 30.6755 5.89025 31.4218V42.7466C2.83931 44.699 0.810791 48.1153 0.810791 51.9987C0.810791 58.0544 5.73552 62.981 11.7889 62.981C15.7704 62.981 19.2632 60.8493 21.1881 57.6671H53.6584C55.693 57.6671 57.3484 56.0101 57.3484 53.9733V48.4094C57.6467 48.1961 57.932 47.9774 58.2086 47.7641C59.402 46.8445 60.4326 46.0503 62.0736 46.0503H67.1382C68.7162 46.0503 70.0001 44.7682 70.0001 43.1922V30.4444C70 28.8661 68.7162 27.5824 67.1381 27.5824ZM36.0016 18.428L32.338 16.1365C31.8997 15.8626 31.3436 15.8625 30.9051 16.1364L27.2373 18.4288V8.91071H36.0016V18.428ZM11.7889 60.2783C7.22579 60.2783 3.51349 56.5641 3.51349 51.9987C3.51349 47.4355 7.22579 43.723 11.7889 43.723C16.352 43.723 20.0643 47.4355 20.0643 51.9987C20.0643 56.5641 16.352 60.2783 11.7889 60.2783ZM67.2973 43.1922C67.2973 43.2751 67.223 43.3476 67.1381 43.3476H62.0735C59.5117 43.3476 57.943 44.5566 56.5588 45.6233C55.3957 46.5197 54.477 47.2276 53.0601 47.2276H36.3178C35.6065 47.2276 35.0277 46.6488 35.0277 45.9374C35.0277 45.2259 35.6065 44.6471 36.3178 44.6471H40.8035C41.5499 44.6471 42.1549 44.0421 42.1549 43.2957C42.1549 42.5494 41.5499 41.9444 40.8035 41.9444H32.7524C32.0409 41.9444 31.4623 41.364 31.4623 40.6503C31.4623 39.9388 32.0411 39.3601 32.7524 39.3601H40.8035C41.5499 39.3601 42.1549 38.7551 42.1549 38.0087C42.1549 37.2624 41.5499 36.6574 40.8035 36.6574H28.6157C27.9043 36.6574 27.3255 36.0786 27.3255 35.3671C27.3255 34.6556 27.9043 34.0768 28.6157 34.0768H40.8035C41.5499 34.0768 42.1549 33.4718 42.1549 32.7255C42.1549 31.9791 41.5499 31.3741 40.8035 31.3741H32.7524C32.0409 31.3741 31.4623 30.7936 31.4623 30.0801C31.4623 29.3686 32.0411 28.7899 32.7524 28.7899H47.8309H50.7638H52.723C53.4693 28.7899 54.0743 28.1849 54.0743 27.4386C54.0743 26.6922 53.4693 26.0872 52.723 26.0872H50.7638H47.8309C46.5949 26.0872 45.5115 25.3455 45.0704 24.1965C44.8134 23.5287 44.8834 23.1479 44.9563 23.0398C45.0296 22.9314 45.2935 22.8575 45.6303 22.8511H49.8093H53.2204C55.4992 22.8967 57.094 24.5859 58.7824 26.374C60.5486 28.2447 62.3749 30.179 65.1159 30.2841C65.1331 30.2848 65.1504 30.2851 65.1677 30.2851H67.1384C67.2246 30.2851 67.2976 30.358 67.2976 30.4442L67.2973 43.1922Z" fill="#072DA0"/>
<path d="M7.24198 26.7004C7.98833 26.7004 8.59334 26.0916 8.59334 25.3452C8.59334 24.5989 7.98833 23.9939 7.24198 23.9939C6.49563 23.9939 5.89062 24.5989 5.89062 25.3452V25.353C5.89062 26.0992 6.49563 26.7004 7.24198 26.7004Z" fill="#072DA0"/>
</g>
</svg>
