<svg width="70" height="70" viewBox="0 0 70 70" fill="none" xmlns="http://www.w3.org/2000/svg">
<mask id="mask0_534_201" style="mask-type:luminance" maskUnits="userSpaceOnUse" x="0" y="0" width="70" height="70">
<path d="M69.1892 0H0V69.1892H69.1892V0Z" fill="white"/>
</mask>
<g mask="url(#mask0_534_201)">
<path d="M44 5H34L22 17L28 20.5L34 14.5L46.5 27L51 32.5L57.5 33.5L60.5 28V9L55.5 5H44Z" fill="#287EFF"/>
<path d="M64.5946 14.3883H61.8893L61.8919 9.55187C61.8935 6.30493 59.2536 3.66188 56.0061 3.66029L35.474 3.64868H35.4714C34.3027 3.64868 33.2037 4.10371 32.377 4.93035L1.72456 35.5828C0.612331 36.6951 0 38.1736 0 39.7467C0 41.3198 0.612331 42.7983 1.72456 43.9106L21.6169 63.8029C22.765 64.951 24.2731 65.5248 25.7807 65.5248C27.2889 65.5248 28.797 64.951 29.9451 63.8029L49.2441 44.5039C49.772 43.976 49.772 43.1203 49.2441 42.593C48.7162 42.0651 47.8605 42.0651 47.3327 42.593L28.0337 61.892C26.7916 63.1341 24.7704 63.1341 23.5283 61.892L3.63598 41.9997C3.03421 41.3979 2.7027 40.5976 2.7027 39.7467C2.7027 38.8958 3.03421 38.0955 3.63598 37.4937L34.2879 6.84178C34.6041 6.52558 35.0243 6.35138 35.4714 6.35138H35.4725L56.0046 6.363C57.7613 6.36352 59.1903 7.79406 59.1892 9.55081L59.1829 20.8748H53.096C52.5718 20.8748 52.0972 20.6604 51.7541 20.3152C52.3195 20.0729 52.8495 19.7229 53.3103 19.2621C55.2523 17.3195 55.2523 14.1597 53.3103 12.2177C51.3677 10.2751 48.2079 10.2751 46.2653 12.2177C44.3233 14.1597 44.3233 17.3195 46.2653 19.2621C46.9853 19.9821 47.8732 20.4345 48.8039 20.6209C49.4653 22.3475 51.1392 23.5775 53.096 23.5775H59.1813L59.1776 30.0555C59.1776 30.5026 59.0034 30.9223 58.6872 31.2379L54.9773 34.9483C54.4494 35.4762 54.4494 36.3319 54.9773 36.8598C55.5047 37.3871 56.3603 37.3871 56.8882 36.8598L60.5986 33.1494C61.4242 32.3232 61.8798 31.2253 61.8803 30.0571L61.884 23.5775H64.5946C67.1279 23.5775 69.1892 21.5167 69.1892 18.9829C69.1892 16.4496 67.1279 14.3883 64.5946 14.3883ZM48.1767 14.1286C48.6212 13.6841 49.2045 13.4624 49.7883 13.4624C50.3716 13.4624 50.9549 13.6846 51.3994 14.1286C51.5398 14.2695 51.6559 14.4252 51.752 14.5894C50.2687 15.0439 49.1032 16.2311 48.6772 17.7271C48.4982 17.6273 48.3288 17.5032 48.1767 17.3512C47.2883 16.4623 47.2883 15.017 48.1767 14.1286ZM64.5946 20.8748H61.8856L61.8877 17.091H64.5946C65.6377 17.091 66.4865 17.9398 66.4865 18.9829C66.4865 20.0259 65.6377 20.8748 64.5946 20.8748Z" fill="#072DA0"/>
<path d="M21.8127 37.744C21.979 38.342 22.5222 38.7332 23.1134 38.7332C23.2338 38.7332 23.3557 38.7174 23.4766 38.6836L37.3491 34.8222C38.068 34.6221 38.4887 33.8768 38.2887 33.1578C38.0886 32.4394 37.3438 32.0187 36.6243 32.2187L22.7518 36.0796C22.0334 36.2802 21.6127 37.025 21.8127 37.744Z" fill="#072DA0"/>
<path d="M27.9191 39.5269C27.1663 40.2797 26.752 41.28 26.752 42.3447C26.752 43.4089 27.1663 44.4092 27.9191 45.162C28.6961 45.9385 29.716 46.327 30.7363 46.327C31.7567 46.327 32.7771 45.9385 33.5541 45.162C35.1076 43.6084 35.1076 41.0804 33.5541 39.5269C32.0006 37.9734 29.4726 37.9734 27.9191 39.5269ZM31.6427 43.2505C31.1428 43.7504 30.3299 43.7504 29.83 43.2505C29.5877 43.0088 29.4547 42.6868 29.4547 42.3442C29.4547 42.0021 29.5882 41.6801 29.83 41.4378C30.0802 41.1881 30.4085 41.063 30.7363 41.063C31.0647 41.063 31.393 41.1881 31.6427 41.4378C32.1426 41.9377 32.1426 42.7512 31.6427 43.2505Z" fill="#072DA0"/>
<path d="M34.2235 31.4813C35.777 29.9273 35.777 27.3998 34.2235 25.8463C33.4708 25.0936 32.4699 24.6792 31.4057 24.6792C30.3415 24.6792 29.3407 25.0936 28.5885 25.8463C27.035 27.3998 27.035 29.9273 28.5885 31.4813C29.3655 32.2578 30.3854 32.6463 31.4057 32.6463C32.4261 32.6463 33.4465 32.2578 34.2235 31.4813ZM30.4994 27.7572C30.7417 27.5149 31.0637 27.3819 31.4057 27.3819C31.7483 27.3819 32.0703 27.5149 32.3121 27.7572C32.812 28.2571 32.812 29.07 32.3121 29.5699C31.8127 30.0698 30.9993 30.0698 30.4994 29.5699C30 29.07 30 28.2571 30.4994 27.7572Z" fill="#072DA0"/>
<path d="M13.4405 34.9517C12.9127 34.4238 12.057 34.4238 11.5291 34.9517L7.68936 38.7914C7.43598 39.0448 7.29346 39.3884 7.29346 39.7468C7.29346 40.1053 7.43598 40.4489 7.68936 40.7023L24.8257 57.8386C25.0891 58.102 25.4354 58.234 25.7811 58.234C26.1269 58.234 26.4726 58.102 26.7366 57.8386L52.3573 32.2173C52.8852 31.6894 52.8852 30.8337 52.3573 30.3059L35.2216 13.1701C34.9682 12.9167 34.6245 12.7742 34.2661 12.7742C33.9077 12.7742 33.564 12.9167 33.3107 13.1701L19.1737 27.307C18.6459 27.8349 18.6459 28.6906 19.1737 29.2184C19.7011 29.7458 20.5568 29.7458 21.0846 29.2184L34.2661 16.037L49.491 31.2618L25.7811 54.9717L10.5562 39.7468L13.4405 36.8626C13.9679 36.3347 13.9684 35.4795 13.4405 34.9517Z" fill="#072DA0"/>
<path d="M52.1109 38.3748C51.7551 38.3748 51.4067 38.5194 51.1554 38.7707C50.9042 39.022 50.7595 39.3709 50.7595 39.7261C50.7595 40.0814 50.9042 40.4303 51.1554 40.6816C51.4067 40.9329 51.7551 41.0775 52.1109 41.0775C52.4661 41.0775 52.8145 40.9329 53.0663 40.6816C53.3176 40.4303 53.4622 40.0814 53.4622 39.7261C53.4622 39.3709 53.3176 39.022 53.0663 38.7707C52.8145 38.5194 52.4661 38.3748 52.1109 38.3748Z" fill="#072DA0"/>
<path d="M17.2618 33.0395C17.5147 32.7883 17.6583 32.4409 17.6583 32.0841C17.6583 31.7288 17.5147 31.3815 17.2618 31.1286C17.0106 30.8774 16.6632 30.7327 16.3069 30.7327C15.9511 30.7327 15.6027 30.8774 15.3515 31.1286C15.0997 31.3799 14.9556 31.7288 14.9556 32.0841C14.9556 32.4409 15.0997 32.7883 15.3515 33.0395C15.6038 33.2924 15.9511 33.4354 16.3069 33.4354C16.6632 33.4354 17.0106 33.2924 17.2618 33.0395Z" fill="#072DA0"/>
</g>
</svg>
