<svg width="70" height="70" viewBox="0 0 70 70" fill="none" xmlns="http://www.w3.org/2000/svg">
<mask id="mask0_534_249" style="mask-type:luminance" maskUnits="userSpaceOnUse" x="0" y="0" width="70" height="70">
<path d="M69.5676 0H0.378418V69.1892H69.5676V0Z" fill="white"/>
</mask>
<g mask="url(#mask0_534_249)">
<path d="M47 67C56.9411 67 65 58.9411 65 49C65 39.0589 56.9411 31 47 31C37.0589 31 29 39.0589 29 49C29 58.9411 37.0589 67 47 67Z" fill="#287EFF"/>
<path d="M50.6413 29.9514V16.8576C50.6413 16.4828 50.4682 16.1365 50.2233 15.8625L35.5432 0.447107C35.2692 0.158889 34.8796 0 34.4906 0H11.2157C6.91879 0 3.48657 3.50401 3.48657 7.80142V51.8127C3.48657 56.1101 6.91879 59.5566 11.2157 59.5566H29.5877C33.0627 65.3247 39.3792 69.1892 46.5746 69.1892C57.5053 69.1892 66.4316 60.3062 66.4316 49.3613C66.4464 39.8005 59.5819 31.8117 50.6413 29.9514ZM35.9327 5.06176L45.7818 15.4297H39.3935C37.49 15.4297 35.9327 13.8582 35.9327 11.9547V5.06176ZM11.2157 56.6723C8.5193 56.6723 6.37086 54.5091 6.37086 51.8127V7.80142C6.37086 5.09027 8.5193 2.88429 11.2157 2.88429H33.0484V11.9547C33.0484 15.4587 35.8894 18.314 39.3935 18.314H47.7571V29.5761C47.3247 29.5619 46.9784 29.5186 46.6037 29.5186C41.5709 29.5186 36.942 31.4511 33.4523 34.4795H15.1383C14.3449 34.4795 13.6961 35.1283 13.6961 35.9211C13.6961 36.7145 14.3449 37.3633 15.1383 37.3633H30.7701C29.7461 38.8054 28.8951 40.2476 28.2321 41.8338H15.1383C14.3449 41.8338 13.6961 42.4826 13.6961 43.276C13.6961 44.0688 14.3449 44.7181 15.1383 44.7181H27.2946C26.9341 46.1603 26.7467 47.7608 26.7467 49.3613C26.7467 51.9568 27.2514 54.5239 28.1598 56.6871H11.2157V56.6723ZM46.5894 66.3197C37.245 66.3197 29.6453 58.7199 29.6453 49.3755C29.6453 40.0312 37.2302 32.4314 46.5894 32.4314C55.948 32.4314 63.533 40.0312 63.533 49.3755C63.533 58.7199 55.9338 66.3197 46.5894 66.3197Z" fill="#072DA0"/>
<path d="M15.1384 30.1387H29.7462C30.5396 30.1387 31.1884 29.4894 31.1884 28.6966C31.1884 27.9032 30.5396 27.2544 29.7462 27.2544H15.1384C14.345 27.2544 13.6963 27.9032 13.6963 28.6966C13.6963 29.4894 14.345 30.1387 15.1384 30.1387Z" fill="#072DA0"/>
<path d="M46.1132 40.4781C46.2288 40.5066 46.3439 40.5214 46.4595 40.5214C46.6036 40.5214 46.7335 40.5066 46.8633 40.4633C48.7668 40.6222 50.2523 42.2085 50.2523 44.141C50.2523 44.9339 50.901 45.5826 51.6939 45.5826C52.4873 45.5826 53.136 44.9339 53.136 44.141C53.136 40.9685 50.8868 38.3149 47.9016 37.6947V36.7719C47.9016 35.9785 47.2524 35.3298 46.4595 35.3298C45.6661 35.3298 45.0173 35.9785 45.0173 36.7719V37.7527C42.1331 38.4448 39.9846 41.0551 39.9846 44.141C39.9846 47.7749 42.9407 50.7167 46.5603 50.7167C48.5937 50.7167 50.2523 52.3748 50.2523 54.4081C50.2523 56.4415 48.6079 58.1143 46.5603 58.1143C44.527 58.1143 42.8689 56.4557 42.8689 54.4224C42.8689 53.6295 42.2196 52.9802 41.4268 52.9802C40.6334 52.9802 39.9846 53.6295 39.9846 54.4224C39.9846 57.5231 42.1331 60.1186 45.0173 60.8107V62.2961C45.0173 63.0895 45.6661 63.7383 46.4595 63.7383C47.2524 63.7383 47.9016 63.0895 47.9016 62.2961V60.854C50.8868 60.2337 53.136 57.5806 53.136 54.4081C53.136 50.7743 50.1799 47.8324 46.5603 47.8324C44.527 47.8324 42.8689 46.1739 42.8689 44.141C42.8689 42.266 44.282 40.6946 46.1132 40.4781Z" fill="#072DA0"/>
</g>
</svg>
