<svg width="70" height="70" viewBox="0 0 70 70" fill="none" xmlns="http://www.w3.org/2000/svg">
<g clip-path="url(#clip0_534_302)">
<mask id="mask0_534_302" style="mask-type:luminance" maskUnits="userSpaceOnUse" x="0" y="0" width="70" height="70">
<path d="M69.8109 0H0.756836V69.0541H69.8109V0Z" fill="white"/>
</mask>
<g mask="url(#mask0_534_302)">
<path d="M14.5 16.5V35C18 33.8333 26.6 33.6 33 42C34.5 45.1667 36.9 52.5 34.5 56.5L41.5 60.5V30.5L14.5 16.5Z" fill="#287EFF"/>
<path d="M69.1117 14.935L42.2175 0.167082C41.8134 -0.0547175 41.3235 -0.0547175 40.9194 0.167082L30.7825 5.73316C30.5686 5.78953 30.3689 5.89701 30.2035 6.05137L14.0257 14.935C13.5943 15.1715 13.3261 15.6246 13.3261 16.1172V33.9782C10.5971 34.8317 8.09615 36.3368 6.01671 38.4168C0.596574 43.8364 -0.785329 52.1025 2.57802 58.9857C2.90466 59.6548 3.71231 59.9325 4.3814 59.6053C5.05101 59.2781 5.32813 58.4705 5.00149 57.8014C2.14391 51.9529 3.31823 44.9296 7.92388 40.324C10.8041 37.4437 14.6332 35.8574 18.7062 35.8574C22.7792 35.8574 26.6083 37.4437 29.4885 40.324C32.3682 43.2037 33.9546 47.0328 33.9546 51.1058C33.9546 55.1788 32.3682 59.0079 29.488 61.8881C24.8824 66.4937 17.859 67.6681 12.0106 64.8105C11.3415 64.4833 10.5338 64.761 10.2072 65.43C9.88004 66.0997 10.1572 66.9073 10.8268 67.2339C13.334 68.4594 16.0241 69.0547 18.6946 69.0547C23.3535 69.0542 27.9502 67.2408 31.3957 63.7953C32.9757 62.2153 34.2243 60.3924 35.1078 58.4109L40.9194 61.602C41.1217 61.7132 41.3451 61.7685 41.5685 61.7685C41.7918 61.7685 42.0158 61.7132 42.2175 61.602L69.1117 46.8347C69.5432 46.5976 69.8113 46.1445 69.8113 45.6524V36.2794C69.8113 35.5345 69.2076 34.9307 68.4626 34.9307C67.7177 34.9307 67.1139 35.5345 67.1139 36.2794V44.8543L42.9214 58.1386V31.6806L50.9057 27.2962V34.2463C50.9057 34.7237 51.1575 35.1651 51.5679 35.4075C51.7797 35.5324 52.0168 35.595 52.2544 35.595C52.4778 35.595 52.7017 35.5397 52.9045 35.428L58.6676 32.2559C59.0986 32.0188 59.3657 31.5663 59.3657 31.0748V22.6506L67.1139 18.3963V25.4902C67.1139 26.2352 67.7177 26.839 68.4626 26.839C69.2076 26.839 69.8113 26.2352 69.8113 25.4902V16.1172C69.8113 15.6251 69.5432 15.1715 69.1117 14.935ZM41.5685 2.88769L65.6604 16.1172L58.0607 20.2903L33.9688 7.0608L41.5685 2.88769ZM41.5685 29.3462L17.4766 16.1172L25.3549 11.7908L49.4474 25.0198L41.5685 29.3462ZM52.2491 23.4814L28.1572 10.2524L31.1665 8.5997L55.2589 21.8287L52.2491 23.4814ZM31.3957 38.4168C28.006 35.0271 23.4994 33.1605 18.7062 33.1605C17.7995 33.1605 16.9039 33.2274 16.0235 33.3586V18.3963L40.2245 31.6854V58.1433L36.024 55.8368C36.4376 54.3142 36.6515 52.7263 36.6515 51.1058C36.6515 46.3126 34.7849 41.806 31.3957 38.4168ZM56.6688 30.2776L53.6031 31.9651V25.8153L56.6688 24.132V30.2776Z" fill="#072DA0"/>
<path d="M68.4622 29.5288C68.1077 29.5288 67.7594 29.6732 67.5087 29.924C67.2579 30.1747 67.1135 30.5225 67.1135 30.8775C67.1135 31.2321 67.2579 31.5798 67.5087 31.8306C67.7594 32.0819 68.1077 32.2257 68.4622 32.2257C68.8168 32.2257 69.165 32.0819 69.4158 31.8306C69.6666 31.5798 69.811 31.2321 69.811 30.8775C69.811 30.5225 69.6666 30.1747 69.4158 29.924C69.165 29.6732 68.8168 29.5288 68.4622 29.5288Z" fill="#072DA0"/>
<path d="M14.1707 52.4539C14.5158 52.4539 14.8614 52.3222 15.1243 52.0593C15.6511 51.5324 15.6511 50.6784 15.1243 50.1516L14.1902 49.217H22.1613C24.0948 49.217 25.6679 50.7901 25.6679 52.7236C25.6679 54.6571 24.0948 56.2303 22.1613 56.2303H17.4381C16.6932 56.2303 16.0894 56.834 16.0894 57.579C16.0894 58.3234 16.6932 58.9272 17.4381 58.9272H22.1613C25.5821 58.9272 28.3654 56.1444 28.3654 52.7236C28.3654 49.3028 25.5821 46.5201 22.1613 46.5201H14.1902L15.1243 45.5854C15.6511 45.0586 15.6511 44.2046 15.1243 43.6778C14.5979 43.1514 13.7439 43.1514 13.2171 43.6778L9.98018 46.9147C9.45387 47.4415 9.45387 48.2955 9.98018 48.8224L13.2171 52.0587C13.4805 52.3222 13.8256 52.4539 14.1707 52.4539Z" fill="#072DA0"/>
<path d="M6.97089 64.1917C6.58735 64.1917 6.20644 64.0284 5.94039 63.7117L5.93776 63.7086C5.45833 63.1385 5.53209 62.2882 6.10213 61.8088C6.67217 61.3288 7.52302 61.4026 8.00245 61.9726C8.48134 62.5432 8.40917 63.3951 7.83912 63.8745C7.58571 64.0874 7.27751 64.1917 6.97089 64.1917Z" fill="#072DA0"/>
</g>
</g>
<defs>
<clipPath id="clip0_534_302">
<rect width="70" height="70" fill="white"/>
</clipPath>
</defs>
</svg>
